<svg width="1418" height="633" viewBox="0 0 1418 633" fill="none" xmlns="http://www.w3.org/2000/svg">
<path d="M1.00003 459.729C1.00003 459.729 5.42374 489.435 12.6626 554.941C19.9015 620.447 21.9125 631.872 32.3686 631.872C71.7801 631.872 63.7367 184.757 102.344 184.757C140.951 184.757 139.745 480.294 172.722 480.294C205.699 480.294 177.146 205.322 218.97 205.322C260.794 205.322 222.589 490.958 260.794 490.958C298.999 490.958 278.087 385.082 305.836 385.082C333.183 385.082 324.738 629.587 356.508 624.255C388.279 618.923 365.758 303.581 397.126 304.343C428.092 305.104 404.365 634.157 441.364 630.349C478.362 625.778 451.418 220.556 487.612 220.556C523.806 220.556 489.22 566.366 534.664 567.89C580.108 569.413 553.566 301.296 587.347 301.296C621.531 301.296 636.41 292.917 636.41 323.385C636.41 353.853 641.638 391.938 670.996 391.938C700.756 391.938 683.855 546.408 705.571 544.885C727.288 543.361 726.896 260.164 755.047 260.926C783.198 261.688 765.905 299.773 802.1 300.534C838.294 301.296 813.762 392.983 847.142 392.983C880.521 392.983 861.469 584.698 892.837 584.698C923.803 584.698 908.523 350.35 947.532 350.35C986.542 350.35 970.322 155.568 993.112 129.698C1028.34 89.7039 990.532 391.938 1042.41 391.938C1072.43 392.983 1050.14 464.626 1082.26 458.967C1121.27 458.967 1095.27 251.786 1124.23 251.786C1153.18 251.786 1128.65 343.189 1177.72 343.189C1226.78 343.189 1197.63 -6.35831 1239.86 2.02034C1281.68 11.1607 1237.64 618.923 1290.32 615.876C1343 612.83 1293.94 234.267 1329.33 234.267C1364.72 234.267 1320.08 442.21 1417 458.967" stroke="url(#paint0_linear_1736_6668)" stroke-width="2" stroke-miterlimit="10"/>
<path d="M1.00003 459.729C1.00003 459.729 5.42374 489.435 12.6626 554.941C19.9015 620.447 21.9125 631.872 32.3686 631.872C71.7801 631.872 63.7367 184.757 102.344 184.757C140.951 184.757 139.745 480.294 172.722 480.294C205.699 480.294 177.146 205.322 218.97 205.322C260.794 205.322 222.589 490.958 260.794 490.958C298.999 490.958 278.087 385.082 305.836 385.082C333.183 385.082 324.738 629.587 356.508 624.255C388.279 618.923 365.758 303.581 397.126 304.343C428.092 305.104 404.365 634.157 441.364 630.349C478.362 625.778 451.418 220.556 487.612 220.556C523.806 220.556 489.22 566.366 534.664 567.89C580.108 569.413 553.566 301.296 587.347 301.296C621.531 301.296 636.41 292.917 636.41 323.385C636.41 353.853 641.638 391.938 670.996 391.938C700.756 391.938 683.855 546.408 705.571 544.885C727.288 543.361 726.896 260.164 755.047 260.926C783.198 261.688 765.905 299.773 802.1 300.534C838.294 301.296 813.762 392.983 847.142 392.983C880.521 392.983 861.469 584.698 892.837 584.698C923.803 584.698 908.523 350.35 947.532 350.35C986.542 350.35 970.322 155.568 993.112 129.698C1028.34 89.7039 990.532 391.938 1042.41 391.938C1072.43 392.983 1050.14 464.626 1082.26 458.967C1121.27 458.967 1095.27 251.786 1124.23 251.786C1153.18 251.786 1128.65 343.189 1177.72 343.189C1226.78 343.189 1197.63 -6.35831 1239.86 2.02034C1281.68 11.1607 1237.64 618.923 1290.32 615.876C1343 612.83 1293.94 234.267 1329.33 234.267C1364.72 234.267 1320.08 442.21 1417 458.967" stroke="url(#paint1_linear_1736_6668)" stroke-width="2" stroke-miterlimit="10"/>
<defs>
<linearGradient id="paint0_linear_1736_6668" x1="1957.94" y1="20.666" x2="212.456" y2="-227.861" gradientUnits="userSpaceOnUse">
<stop offset="0.49551" stop-color="#EBBD1B"/>
<stop offset="0.815" stop-color="#FBF1CF" stop-opacity="0.208439"/>
<stop offset="1" stop-color="white" stop-opacity="0"/>
</linearGradient>
<linearGradient id="paint1_linear_1736_6668" x1="955.129" y1="294.046" x2="917.072" y2="685.098" gradientUnits="userSpaceOnUse">
<stop offset="0.10469" stop-opacity="0"/>
<stop offset="0.295845" stop-opacity="0.62"/>
</linearGradient>
</defs>
</svg>
